<svg xmlns="http://www.w3.org/2000/svg" width="600" height="360" viewBox="0 0 600 360" role="img" aria-label="리코더 운지 게임 예시">
<defs><linearGradient id="sky" x2="0" y2="1"><stop stop-color="#9eddf9"/><stop offset="1" stop-color="#eefadf"/></linearGradient><linearGradient id="flute" x2="1" y2="0"><stop stop-color="#b7804e"/><stop offset=".48" stop-color="#ffe0a9"/><stop offset="1" stop-color="#bd8954"/></linearGradient></defs>
<rect width="600" height="360" rx="35" fill="url(#sky)"/><circle cx="515" cy="66" r="39" fill="#fff0a9"/><ellipse cx="70" cy="360" rx="250" ry="105" fill="#a2d6a5"/><ellipse cx="470" cy="385" rx="280" ry="145" fill="#84ca96"/>
<rect x="36" y="32" width="285" height="66" rx="21" fill="#fffef4" stroke="#e1f1d7" stroke-width="4"/><text x="58" y="75" font-family="sans-serif" font-size="29" font-weight="900" fill="#376e56">시 손가락 만들기!</text>
<rect x="176" y="116" width="248" height="221" rx="28" fill="#fffdf3" stroke="#ffffff" stroke-width="9"/><rect x="266" y="117" width="65" height="65" rx="12" fill="url(#flute)" stroke="#a57b4d" stroke-width="4"/><rect x="279" y="140" width="37" height="11" rx="5" fill="#754c2e"/>
<rect x="274" y="166" width="49" height="169" rx="13" fill="url(#flute)" stroke="#a57b4d" stroke-width="3"/>
<circle cx="298" cy="187" r="13" fill="#385b4d" stroke="#22372e" stroke-width="4"/><circle cx="298" cy="224" r="13" fill="#fdf6e6" stroke="#8b6244" stroke-width="4"/><circle cx="298" cy="261" r="13" fill="#fdf6e6" stroke="#8b6244" stroke-width="4"/><circle cx="298" cy="297" r="13" fill="#fdf6e6" stroke="#8b6244" stroke-width="4"/>
<circle cx="250" cy="189" r="13" fill="#385b4d" stroke="#22372e" stroke-width="4"/><path d="M235 189H204" stroke="#518d73" stroke-width="4" stroke-dasharray="5 5"/><rect x="165" y="175" width="56" height="28" rx="14" fill="#e1f2dd"/><text x="178" y="194" font-family="sans-serif" font-size="13" font-weight="900" fill="#367259">엄지</text>
<g fill="#ffffff" opacity=".85"><circle cx="75" cy="154" r="14"/><circle cx="102" cy="156" r="21"/><circle cx="128" cy="158" r="15"/></g><g font-family="sans-serif" font-weight="900" font-size="23" fill="#3a8c70"><text x="433" y="175">● 막기</text><text x="433" y="219">○ 열기</text></g><g font-size="34"><text x="66" y="302">🌷</text><text x="492" y="302">🌼</text></g></svg>